<svg xmlns="http://www.w3.org/2000/svg" width="16.414" height="16.414" viewBox="0 0 16.414 16.414">
  <g id="Icon_feather-eye-off" data-name="Icon feather-eye-off" transform="translate(-0.793 -0.793)">
    <path id="Path_42846" data-name="Path 42846" d="M13.05,15.5A6.866,6.866,0,0,1,9,16.909c-4.773,0-7.5-5.455-7.5-5.455A12.58,12.58,0,0,1,4.95,7.4M7.568,6.164A6.218,6.218,0,0,1,9,6c4.773,0,7.5,5.455,7.5,5.455a12.614,12.614,0,0,1-1.473,2.175m-4.582-.73a2.045,2.045,0,1,1-2.891-2.891" transform="translate(0 -2.455)" fill="none" stroke="#b18407" stroke-linecap="round" stroke-linejoin="round" stroke-width="1"/>
    <path id="Path_42847" data-name="Path 42847" d="M1.5,1.5l15,15" fill="none" stroke="#b18407" stroke-linecap="round" stroke-linejoin="round" stroke-width="1"/>
  </g>
</svg>
